<?xml version="1.0" encoding="utf-8"?>
<!-- Generator: Adobe Illustrator 25.1.0, SVG Export Plug-In . SVG Version: 6.00 Build 0)  -->
<svg version="1.1" id="Layer_1" xmlns="http://www.w3.org/2000/svg" xmlns:xlink="http://www.w3.org/1999/xlink" x="0px" y="0px"
	 viewBox="0 0 496 537.2" style="enable-background:new 0 0 496 537.2;" xml:space="preserve">
<style type="text/css">
	.st0{fill:#886FB1;}
	.st1{fill:#219393;}
	.st2{display:none;}
	.st3{display:inline;fill:#FFFFFF;stroke:#000000;stroke-miterlimit:10;}
	.st4{display:inline;stroke:#000000;stroke-miterlimit:10;}
	.st5{display:none;stroke:#000000;stroke-miterlimit:10;}
	.st6{fill:none;}
	.st7{font-family:'Rockwell-Regular';}
	.st8{font-size:66px;}
</style>
<g id="Layer_2_1_">
	<polygon class="st0" points="491.1,464.2 247.7,466.4 247.7,4.4 491.1,2.1 	"/>
	<polyline class="st1" points="4.9,6.4 248.3,4.2 248.3,466.3 4.9,468.5 	"/>
</g>
<g id="Layer_1_1_" class="st2">
	<rect x="226.3" y="42.1" class="st3" width="42.7" height="387.4"/>
	<polygon class="st3" points="77.7,42.1 78.4,42.9 178.2,170.3 178.2,42.1 	"/>
	<polygon class="st3" points="66.1,428.4 179.2,259.1 179.2,428.4 	"/>
	<path class="st3" d="M385,202.9h-67.8V102.5H385c27.6,0,50,22.4,50,50v0.3C435,180.5,412.6,202.9,385,202.9z"/>
	<path class="st3" d="M395,386.6h-77.9V277.7H395c27.6,0,50,22.4,50,50v8.9C445,364.3,422.7,386.6,395,386.6z"/>
	<polygon class="st4" points="150.7,215.8 52.9,97.1 49,373.6 	"/>
	<path class="st4" d="M432.7,231.9l5.8-5.1c18.3-16.2,30.9-37.9,35.6-61.9l1.7-8.4c0.1-0.5,1.8-9.3,1.8-8.8l2.1,148.5l-5.8-14.1
		c-8.2-20-22.6-36.9-41-48.2l-0.2-0.1C432.1,233.1,432.1,232.3,432.7,231.9z"/>
</g>
<g id="Layer_1_copy">
	<polygon points="269,466.1 226.3,466.1 225.6,5.3 268.3,5.3 	"/>
	<polygon points="77.7,40.9 78.4,41.7 178.2,169.1 178.2,40.9 	"/>
	<polygon points="66.1,427.2 179.2,257.9 179.2,427.2 	"/>
	<path d="M385,201.7h-67.8V101.3H385c27.6,0,50,22.4,50,50v0.3C435,179.3,412.6,201.7,385,201.7z"/>
	<path d="M395,385.4h-77.9V276.5H395c27.6,0,50,22.4,50,50v8.9C445,363.1,422.7,385.4,395,385.4z"/>
	<polygon class="st5" points="150.7,214.6 52.9,95.9 49,372.4 	"/>
	<path class="st5" d="M432.7,230.7l5.8-5.1c18.3-16.2,30.9-37.9,35.6-61.9l1.7-8.4c0.1-0.5,1.8-9.3,1.8-8.8l2.1,148.5l-5.8-14.1
		c-8.2-20-22.6-36.9-41-48.2l-0.2-0.1C432.1,231.9,432.1,231.1,432.7,230.7z"/>
</g>
<rect x="75.4" y="477.9" class="st6" width="390" height="89"/>
<text transform="matrix(1 0 0 1 75.3672 526.4605)" class="st7 st8">Kara Butler</text>
</svg>
